<?xml version="1.0" encoding="UTF-8"?><svg xmlns="http://www.w3.org/2000/svg" xmlns:xlink="http://www.w3.org/1999/xlink" fill-opacity="1" color-rendering="auto" color-interpolation="auto" text-rendering="auto" stroke="black" stroke-linecap="square" width="435" stroke-miterlimit="10" shape-rendering="auto" stroke-opacity="1" fill="black" stroke-dasharray="none" font-weight="normal" stroke-width="1" height="360" font-family="'Dialog'" font-style="normal" stroke-linejoin="miter" font-size="12px" stroke-dashoffset="0" image-rendering="auto">
  <!--Generated by ySVG 2.5-->
  <defs id="genericDefs"/>
  <g>
    <defs id="defs1">
      <clipPath clipPathUnits="userSpaceOnUse" id="clipPath1">
        <path d="M0 0 L435 0 L435 360 L0 360 L0 0 Z"/>
      </clipPath>
      <clipPath clipPathUnits="userSpaceOnUse" id="clipPath2">
        <path d="M150 -15 L585 -15 L585 345 L150 345 L150 -15 Z"/>
      </clipPath>
      <clipPath clipPathUnits="userSpaceOnUse" id="clipPath3">
        <path d="M-160.8965 320.1328 L-160.8965 -114.8672 L199.1035 -114.8672 L199.1035 320.1328 L-160.8965 320.1328 Z"/>
      </clipPath>
    </defs>
    <g fill="white" text-rendering="geometricPrecision" shape-rendering="geometricPrecision" transform="translate(-150,15)" stroke="white">
      <rect x="150" width="435" height="360" y="-15" clip-path="url(#clipPath2)" stroke="none"/>
    </g>
    <g fill="rgb(158,190,255)" text-rendering="geometricPrecision" shape-rendering="geometricPrecision" transform="matrix(1,0,0,1,-150,15)" stroke="rgb(158,190,255)">
      <rect x="165" width="240" height="60" y="90" clip-path="url(#clipPath2)" stroke="none"/>
    </g>
    <g stroke-linecap="butt" font-size="13px" transform="matrix(1,0,0,1,-150,15)" fill="rgb(0,32,97)" text-rendering="geometricPrecision" font-family="sans-serif" shape-rendering="geometricPrecision" stroke="rgb(0,32,97)" font-weight="bold" stroke-miterlimit="1.45">
      <text x="241.3884" xml:space="preserve" y="124.9131" clip-path="url(#clipPath2)" stroke="none">Zustelldienst</text>
    </g>
    <g stroke-linecap="butt" transform="matrix(1,0,0,1,-150,15)" fill="rgb(0,53,158)" text-rendering="geometricPrecision" shape-rendering="geometricPrecision" stroke="rgb(0,53,158)" stroke-width="2" stroke-miterlimit="1.45">
      <rect fill="none" x="165" width="240" height="60" y="90" clip-path="url(#clipPath2)"/>
    </g>
    <g fill="rgb(255,158,158)" text-rendering="geometricPrecision" shape-rendering="geometricPrecision" transform="matrix(1,0,0,1,-150,15)" stroke="rgb(255,158,158)">
      <rect x="180" y="80" clip-path="url(#clipPath2)" width="210" rx="4" ry="4" height="20" stroke="none"/>
    </g>
    <g stroke-linecap="butt" font-size="13px" transform="matrix(1,0,0,1,-150,15)" fill="rgb(97,0,0)" text-rendering="geometricPrecision" font-family="sans-serif" shape-rendering="geometricPrecision" stroke="rgb(97,0,0)" font-weight="bold" stroke-miterlimit="1.45">
      <text x="208.8503" xml:space="preserve" y="94.9131" clip-path="url(#clipPath2)" stroke="none">Application Sender API</text>
    </g>
    <g stroke-linecap="butt" transform="matrix(1,0,0,1,-150,15)" fill="rgb(158,0,0)" text-rendering="geometricPrecision" shape-rendering="geometricPrecision" stroke="rgb(158,0,0)" stroke-width="2" stroke-miterlimit="1.45">
      <rect x="180" y="80" clip-path="url(#clipPath2)" fill="none" width="210" rx="4" ry="4" height="20"/>
    </g>
    <g fill="rgb(255,158,158)" text-rendering="geometricPrecision" shape-rendering="geometricPrecision" transform="matrix(1,0,0,1,-150,15)" stroke="rgb(255,158,158)">
      <rect x="180" y="140" clip-path="url(#clipPath2)" width="210" rx="4" ry="4" height="20" stroke="none"/>
    </g>
    <g stroke-linecap="butt" font-size="13px" transform="matrix(1,0,0,1,-150,15)" fill="rgb(97,0,0)" text-rendering="geometricPrecision" font-family="sans-serif" shape-rendering="geometricPrecision" stroke="rgb(97,0,0)" font-weight="bold" stroke-miterlimit="1.45">
      <text x="196.1487" xml:space="preserve" y="154.9131" clip-path="url(#clipPath2)" stroke="none">Application Subscriber API</text>
    </g>
    <g stroke-linecap="butt" transform="matrix(1,0,0,1,-150,15)" fill="rgb(158,0,0)" text-rendering="geometricPrecision" shape-rendering="geometricPrecision" stroke="rgb(158,0,0)" stroke-width="2" stroke-miterlimit="1.45">
      <rect x="180" y="140" clip-path="url(#clipPath2)" fill="none" width="210" rx="4" ry="4" height="20"/>
    </g>
    <g fill="rgb(217,230,255)" text-rendering="geometricPrecision" shape-rendering="geometricPrecision" transform="matrix(1,0,0,1,-150,15)" stroke="rgb(217,230,255)">
      <rect x="420" width="150" height="30" y="0" clip-path="url(#clipPath2)" stroke="none"/>
    </g>
    <g stroke-linecap="butt" font-size="13px" transform="matrix(1,0,0,1,-150,15)" fill="rgb(0,32,97)" text-rendering="geometricPrecision" font-family="sans-serif" shape-rendering="geometricPrecision" stroke="rgb(0,32,97)" stroke-miterlimit="1.45">
      <text x="454.7749" xml:space="preserve" y="19.9131" clip-path="url(#clipPath2)" stroke="none">Servicekonto</text>
    </g>
    <g stroke-linecap="butt" transform="matrix(1,0,0,1,-150,15)" fill="rgb(0,53,158)" text-rendering="geometricPrecision" shape-rendering="geometricPrecision" stroke-dasharray="12,4" stroke="rgb(0,53,158)" stroke-width="2" stroke-miterlimit="1.45">
      <rect fill="none" x="420" width="150" height="30" y="0" clip-path="url(#clipPath2)"/>
    </g>
    <g fill="rgb(255,255,158)" text-rendering="geometricPrecision" shape-rendering="geometricPrecision" transform="matrix(1,0,0,1,-150,15)" stroke="rgb(255,255,158)">
      <rect x="210" width="150" height="30" y="0" clip-path="url(#clipPath2)" stroke="none"/>
    </g>
    <g stroke-linecap="butt" font-size="13px" transform="matrix(1,0,0,1,-150,15)" fill="rgb(97,97,0)" text-rendering="geometricPrecision" font-family="sans-serif" shape-rendering="geometricPrecision" stroke="rgb(97,97,0)" font-weight="bold" stroke-miterlimit="1.45">
      <text x="262.1389" xml:space="preserve" y="19.9131" clip-path="url(#clipPath2)" stroke="none">Sender</text>
    </g>
    <g stroke-linecap="butt" transform="matrix(1,0,0,1,-150,15)" fill="rgb(158,158,0)" text-rendering="geometricPrecision" shape-rendering="geometricPrecision" stroke="rgb(158,158,0)" stroke-width="2" stroke-miterlimit="1.45">
      <rect fill="none" x="210" width="150" height="30" y="0" clip-path="url(#clipPath2)"/>
    </g>
    <g fill="rgb(255,255,158)" text-rendering="geometricPrecision" shape-rendering="geometricPrecision" transform="matrix(1,0,0,1,-150,15)" stroke="rgb(255,255,158)">
      <rect x="210" width="150" height="30" y="210" clip-path="url(#clipPath2)" stroke="none"/>
    </g>
    <g stroke-linecap="butt" font-size="13px" transform="matrix(1,0,0,1,-150,15)" fill="rgb(97,97,0)" text-rendering="geometricPrecision" font-family="sans-serif" shape-rendering="geometricPrecision" stroke="rgb(97,97,0)" font-weight="bold" stroke-miterlimit="1.45">
      <text x="249.4373" xml:space="preserve" y="229.9131" clip-path="url(#clipPath2)" stroke="none">Subscriber</text>
    </g>
    <g stroke-linecap="butt" transform="matrix(1,0,0,1,-150,15)" fill="rgb(158,158,0)" text-rendering="geometricPrecision" shape-rendering="geometricPrecision" stroke="rgb(158,158,0)" stroke-width="2" stroke-miterlimit="1.45">
      <rect fill="none" x="210" width="150" height="30" y="210" clip-path="url(#clipPath2)"/>
    </g>
    <g fill="rgb(255,255,217)" text-rendering="geometricPrecision" shape-rendering="geometricPrecision" transform="matrix(1,0,0,1,-150,15)" stroke="rgb(255,255,217)">
      <rect x="210" width="150" height="30" y="300" clip-path="url(#clipPath2)" stroke="none"/>
    </g>
    <g stroke-linecap="butt" font-size="13px" transform="matrix(1,0,0,1,-150,15)" fill="rgb(97,97,0)" text-rendering="geometricPrecision" font-family="sans-serif" shape-rendering="geometricPrecision" stroke="rgb(97,97,0)" stroke-miterlimit="1.45">
      <text x="251.5479" xml:space="preserve" y="319.9131" clip-path="url(#clipPath2)" stroke="none">Zielsystem</text>
    </g>
    <g stroke-linecap="butt" transform="matrix(1,0,0,1,-150,15)" fill="rgb(158,158,0)" text-rendering="geometricPrecision" shape-rendering="geometricPrecision" stroke-dasharray="12,4" stroke="rgb(158,158,0)" stroke-width="2" stroke-miterlimit="1.45">
      <rect fill="none" x="210" width="150" height="30" y="300" clip-path="url(#clipPath2)"/>
    </g>
    <g text-rendering="geometricPrecision" stroke-miterlimit="1.45" shape-rendering="geometricPrecision" transform="matrix(1,0,0,1,-150,15)" stroke-linecap="butt">
      <path fill="none" d="M285 30 L285 72.0098" clip-path="url(#clipPath2)"/>
      <path d="M285 80.0098 L290 68.0098 L285 71.0098 L280 68.0098 Z" clip-path="url(#clipPath2)" stroke="none"/>
      <path fill="none" d="M360 15 L412 15" clip-path="url(#clipPath2)"/>
      <path d="M420 15 L408 10 L411 15 L408 20 Z" clip-path="url(#clipPath2)" stroke="none"/>
      <path fill="none" d="M404.9707 120 L450 120 L450 225 L367.9707 225" clip-path="url(#clipPath2)"/>
      <path d="M359.9707 225 L371.9707 230 L368.9707 225 L371.9707 220 Z" clip-path="url(#clipPath2)" stroke="none"/>
    </g>
    <g text-rendering="geometricPrecision" stroke-miterlimit="1.45" shape-rendering="geometricPrecision" font-family="sans-serif" transform="matrix(0,1,-1,0,320.1328,160.8965)" stroke-linecap="butt">
      <text x="2" xml:space="preserve" y="13.6016" clip-path="url(#clipPath3)" stroke="none">Callback</text>
    </g>
    <g text-rendering="geometricPrecision" stroke-miterlimit="1.45" shape-rendering="geometricPrecision" transform="matrix(1,0,0,1,-150,15)" stroke-linecap="butt">
      <path fill="none" d="M285 210 L285 167.9902" clip-path="url(#clipPath2)"/>
      <path d="M285 159.9902 L280 171.9902 L285 168.9902 L290 171.9902 Z" clip-path="url(#clipPath2)" stroke="none"/>
      <path fill="none" d="M285 240 L285 292" clip-path="url(#clipPath2)"/>
      <path d="M285 300 L290 288 L285 291 L280 288 Z" clip-path="url(#clipPath2)" stroke="none"/>
    </g>
  </g>
</svg>
